<mxfile>
    <diagram id="Bfr-ILWsBlbZHcRtjHFg" name="Page-1">
        <mxGraphModel dx="1118" dy="790" grid="1" gridSize="10" guides="1" tooltips="1" connect="1" arrows="1" fold="1" page="1" pageScale="1" pageWidth="827" pageHeight="1169" math="0" shadow="0">
            <root>
                <mxCell id="0"/>
                <mxCell id="1" parent="0"/>
                <mxCell id="14" value="" style="group" parent="1" vertex="1" connectable="0">
                    <mxGeometry x="870" y="90" width="180" height="210" as="geometry"/>
                </mxCell>
                <mxCell id="6" value="user" style="shape=ext;double=1;rounded=0;whiteSpace=wrap;html=1;fillColor=#1ba1e2;strokeColor=#006EAF;fontColor=#ffffff;" parent="14" vertex="1">
                    <mxGeometry width="180" height="30" as="geometry"/>
                </mxCell>
                <mxCell id="7" value="&lt;font color=&quot;#000000&quot;&gt;pseudo&lt;/font&gt;" style="shape=ext;double=1;rounded=0;whiteSpace=wrap;html=1;fillColor=#ffcccc;strokeColor=#36393d;" parent="14" vertex="1">
                    <mxGeometry y="30" width="180" height="30" as="geometry"/>
                </mxCell>
                <mxCell id="8" value="&lt;font color=&quot;#000000&quot;&gt;email&lt;/font&gt;" style="shape=ext;double=1;rounded=0;whiteSpace=wrap;html=1;fillColor=#ffcccc;strokeColor=#36393d;" parent="14" vertex="1">
                    <mxGeometry y="60" width="180" height="30" as="geometry"/>
                </mxCell>
                <mxCell id="9" value="&lt;font color=&quot;#000000&quot;&gt;login&lt;/font&gt;" style="shape=ext;double=1;rounded=0;whiteSpace=wrap;html=1;fillColor=#ffcccc;strokeColor=#36393d;" parent="14" vertex="1">
                    <mxGeometry y="90" width="180" height="30" as="geometry"/>
                </mxCell>
                <mxCell id="10" value="&lt;font color=&quot;#000000&quot;&gt;password&lt;/font&gt;" style="shape=ext;double=1;rounded=0;whiteSpace=wrap;html=1;fillColor=#ffcccc;strokeColor=#36393d;" parent="14" vertex="1">
                    <mxGeometry y="120" width="180" height="30" as="geometry"/>
                </mxCell>
                <mxCell id="12" value="&lt;font color=&quot;#000000&quot;&gt;created at&lt;/font&gt;" style="shape=ext;double=1;rounded=0;whiteSpace=wrap;html=1;fillColor=#ffcccc;strokeColor=#36393d;" parent="14" vertex="1">
                    <mxGeometry y="150" width="180" height="30" as="geometry"/>
                </mxCell>
                <mxCell id="13" value="&lt;font color=&quot;#000000&quot;&gt;updated at&lt;/font&gt;" style="shape=ext;double=1;rounded=0;whiteSpace=wrap;html=1;fillColor=#ffcccc;strokeColor=#36393d;" parent="14" vertex="1">
                    <mxGeometry y="180" width="180" height="30" as="geometry"/>
                </mxCell>
                <mxCell id="15" value="" style="group;fillColor=#a20025;strokeColor=#6F0000;fontColor=#ffffff;" parent="1" vertex="1" connectable="0">
                    <mxGeometry x="480" y="90" width="180" height="210" as="geometry"/>
                </mxCell>
                <mxCell id="16" value="program" style="shape=ext;double=1;rounded=0;whiteSpace=wrap;html=1;fillColor=#a20025;strokeColor=#6F0000;fontColor=#ffffff;" parent="15" vertex="1">
                    <mxGeometry width="180" height="30" as="geometry"/>
                </mxCell>
                <mxCell id="17" value="&lt;font color=&quot;#000000&quot;&gt;titre&lt;/font&gt;" style="shape=ext;double=1;rounded=0;whiteSpace=wrap;html=1;fillColor=#ffcccc;strokeColor=#36393d;" parent="15" vertex="1">
                    <mxGeometry y="30" width="180" height="30" as="geometry"/>
                </mxCell>
                <mxCell id="18" value="&lt;font color=&quot;#000000&quot;&gt;description&lt;/font&gt;" style="shape=ext;double=1;rounded=0;whiteSpace=wrap;html=1;fillColor=#ffcccc;strokeColor=#36393d;" parent="15" vertex="1">
                    <mxGeometry y="60" width="180" height="30" as="geometry"/>
                </mxCell>
                <mxCell id="19" value="&lt;font color=&quot;#000000&quot;&gt;image&lt;/font&gt;" style="shape=ext;double=1;rounded=0;whiteSpace=wrap;html=1;fillColor=#ffcccc;strokeColor=#36393d;" parent="15" vertex="1">
                    <mxGeometry y="90" width="180" height="30" as="geometry"/>
                </mxCell>
                <mxCell id="20" value="favorite" style="shape=ext;double=1;rounded=0;whiteSpace=wrap;html=1;fillColor=#fa6800;strokeColor=#C73500;fontColor=#ffffff;" parent="15" vertex="1">
                    <mxGeometry y="120" width="180" height="30" as="geometry"/>
                </mxCell>
                <mxCell id="21" value="&lt;font color=&quot;#000000&quot;&gt;created at&lt;/font&gt;" style="shape=ext;double=1;rounded=0;whiteSpace=wrap;html=1;fillColor=#ffcccc;strokeColor=#36393d;" parent="15" vertex="1">
                    <mxGeometry y="150" width="180" height="30" as="geometry"/>
                </mxCell>
                <mxCell id="22" value="&lt;font color=&quot;#000000&quot;&gt;updated at&lt;/font&gt;" style="shape=ext;double=1;rounded=0;whiteSpace=wrap;html=1;fillColor=#ffcccc;strokeColor=#36393d;" parent="15" vertex="1">
                    <mxGeometry y="180" width="180" height="30" as="geometry"/>
                </mxCell>
                <mxCell id="32" value="" style="group" parent="1" vertex="1" connectable="0">
                    <mxGeometry x="80" y="240" width="300" height="90" as="geometry"/>
                </mxCell>
                <mxCell id="28" value="&lt;font color=&quot;#000000&quot;&gt;name&lt;/font&gt;" style="shape=ext;double=1;rounded=0;whiteSpace=wrap;html=1;fillColor=#ffcccc;strokeColor=#36393d;" parent="32" vertex="1">
                    <mxGeometry y="30" width="180" height="30" as="geometry"/>
                </mxCell>
                <mxCell id="25" value="category" style="shape=ext;double=1;rounded=0;whiteSpace=wrap;html=1;fillColor=#6a00ff;strokeColor=#3700CC;fontColor=#ffffff;" parent="32" vertex="1">
                    <mxGeometry width="180" height="30" as="geometry"/>
                </mxCell>
                <mxCell id="34" value="" style="group" parent="1" vertex="1" connectable="0">
                    <mxGeometry x="480" y="440" width="180" height="210" as="geometry"/>
                </mxCell>
                <mxCell id="35" value="time" style="shape=ext;double=1;rounded=0;whiteSpace=wrap;html=1;fillColor=#008a00;strokeColor=#005700;fontColor=#ffffff;" parent="34" vertex="1">
                    <mxGeometry width="180" height="30" as="geometry"/>
                </mxCell>
                <mxCell id="36" value="user ID" style="shape=ext;double=1;rounded=0;whiteSpace=wrap;html=1;fillColor=#fa6800;strokeColor=#C73500;fontColor=#ffffff;" parent="34" vertex="1">
                    <mxGeometry y="30" width="180" height="30" as="geometry"/>
                </mxCell>
                <mxCell id="37" value="program ID" style="shape=ext;double=1;rounded=0;whiteSpace=wrap;html=1;fillColor=#fa6800;strokeColor=#C73500;fontColor=#ffffff;" parent="34" vertex="1">
                    <mxGeometry y="60" width="180" height="30" as="geometry"/>
                </mxCell>
                <mxCell id="38" value="time" style="shape=ext;double=1;rounded=0;whiteSpace=wrap;html=1;fillColor=#fa6800;strokeColor=#C73500;fontColor=#ffffff;" parent="34" vertex="1">
                    <mxGeometry y="90" width="180" height="30" as="geometry"/>
                </mxCell>
                <mxCell id="40" value="created at" style="shape=ext;double=1;rounded=0;whiteSpace=wrap;html=1;fillColor=#fa6800;strokeColor=#C73500;fontColor=#ffffff;" parent="34" vertex="1">
                    <mxGeometry y="120" width="180" height="30" as="geometry"/>
                </mxCell>
                <mxCell id="41" value="updated at" style="shape=ext;double=1;rounded=0;whiteSpace=wrap;html=1;fillColor=#fa6800;strokeColor=#C73500;fontColor=#ffffff;" parent="34" vertex="1">
                    <mxGeometry y="150" width="180" height="30" as="geometry"/>
                </mxCell>
                <mxCell id="52" value="" style="rhombus;whiteSpace=wrap;html=1;fillColor=#fad9d5;strokeColor=#ae4132;" parent="1" vertex="1">
                    <mxGeometry x="190" y="299" width="20" height="20" as="geometry"/>
                </mxCell>
                <mxCell id="67" value="" style="endArrow=none;html=1;exitX=1;exitY=0.5;exitDx=0;exitDy=0;entryX=0.5;entryY=1;entryDx=0;entryDy=0;" parent="1" source="28" target="52" edge="1">
                    <mxGeometry width="50" height="50" relative="1" as="geometry">
                        <mxPoint x="340" y="525" as="sourcePoint"/>
                        <mxPoint x="180" y="370" as="targetPoint"/>
                        <Array as="points">
                            <mxPoint x="340" y="285"/>
                            <mxPoint x="340" y="320"/>
                            <mxPoint x="340" y="370"/>
                            <mxPoint x="340" y="430"/>
                            <mxPoint x="290" y="430"/>
                            <mxPoint x="200" y="430"/>
                        </Array>
                    </mxGeometry>
                </mxCell>
                <mxCell id="69" value="0,n" style="edgeLabel;html=1;align=center;verticalAlign=middle;resizable=0;points=[];fontSize=15;" parent="67" vertex="1" connectable="0">
                    <mxGeometry x="0.8782" y="-1" relative="1" as="geometry">
                        <mxPoint as="offset"/>
                    </mxGeometry>
                </mxCell>
                <mxCell id="45" value="" style="endArrow=none;html=1;exitX=0.5;exitY=0;exitDx=0;exitDy=0;" parent="1" source="52" edge="1">
                    <mxGeometry width="50" height="50" relative="1" as="geometry">
                        <mxPoint x="600" y="430" as="sourcePoint"/>
                        <mxPoint x="200" y="299" as="targetPoint"/>
                        <Array as="points"/>
                    </mxGeometry>
                </mxCell>
                <mxCell id="70" value="0,1" style="edgeLabel;html=1;align=center;verticalAlign=middle;resizable=0;points=[];fontSize=15;" vertex="1" connectable="0" parent="1">
                    <mxGeometry x="280" y="283" as="geometry">
                        <mxPoint x="11" y="1" as="offset"/>
                    </mxGeometry>
                </mxCell>
                <mxCell id="72" value="&lt;font color=&quot;#000000&quot;&gt;Une catégorie peut avoir des sous-catégories&lt;/font&gt;" style="rounded=1;whiteSpace=wrap;html=1;gradientColor=#b3b3b3;fillColor=#f5f5f5;strokeColor=#666666;" vertex="1" parent="1">
                    <mxGeometry x="222" y="404" width="100" height="52" as="geometry"/>
                </mxCell>
                <mxCell id="78" value="" style="endArrow=none;html=1;entryX=0;entryY=0;entryDx=0;entryDy=0;exitX=1;exitY=0;exitDx=0;exitDy=0;" edge="1" parent="1" source="25" target="19">
                    <mxGeometry width="50" height="50" relative="1" as="geometry">
                        <mxPoint x="540" y="420" as="sourcePoint"/>
                        <mxPoint x="590" y="370" as="targetPoint"/>
                    </mxGeometry>
                </mxCell>
                <mxCell id="80" value="2,2" style="edgeLabel;html=1;align=center;verticalAlign=middle;resizable=0;points=[];fontSize=15;" vertex="1" connectable="0" parent="1">
                    <mxGeometry x="428" y="188" as="geometry">
                        <mxPoint x="11" y="1" as="offset"/>
                    </mxGeometry>
                </mxCell>
                <mxCell id="81" value="0,n" style="edgeLabel;html=1;align=center;verticalAlign=middle;resizable=0;points=[];fontSize=15;" vertex="1" connectable="0" parent="1">
                    <mxGeometry x="302" y="227" as="geometry">
                        <mxPoint x="-13" y="3" as="offset"/>
                    </mxGeometry>
                </mxCell>
                <mxCell id="82" value="&lt;font color=&quot;#000000&quot;&gt;Un programme a deux catégories&lt;/font&gt;" style="rounded=1;whiteSpace=wrap;html=1;gradientColor=#b3b3b3;fillColor=#f5f5f5;strokeColor=#666666;" vertex="1" parent="1">
                    <mxGeometry x="320" y="194" width="96" height="32" as="geometry"/>
                </mxCell>
                <mxCell id="83" value="" style="endArrow=none;html=1;entryX=0.5;entryY=1;entryDx=0;entryDy=0;exitX=0.5;exitY=0;exitDx=0;exitDy=0;" edge="1" parent="1" source="35" target="22">
                    <mxGeometry width="50" height="50" relative="1" as="geometry">
                        <mxPoint x="540" y="420" as="sourcePoint"/>
                        <mxPoint x="590" y="370" as="targetPoint"/>
                    </mxGeometry>
                </mxCell>
                <mxCell id="85" value="" style="rhombus;whiteSpace=wrap;html=1;fillColor=#fad9d5;strokeColor=#ae4132;rotation=0;" vertex="1" parent="1">
                    <mxGeometry x="560" y="421" width="20" height="20" as="geometry"/>
                </mxCell>
                <mxCell id="89" value="0,1" style="edgeLabel;html=1;align=center;verticalAlign=middle;resizable=0;points=[];fontSize=15;" vertex="1" connectable="0" parent="1">
                    <mxGeometry x="577" y="319" as="geometry">
                        <mxPoint x="-8" y="-4" as="offset"/>
                    </mxGeometry>
                </mxCell>
                <mxCell id="90" value="1,1" style="edgeLabel;html=1;align=center;verticalAlign=middle;resizable=0;points=[];fontSize=15;" vertex="1" connectable="0" parent="1">
                    <mxGeometry x="585" y="405" as="geometry">
                        <mxPoint x="-17" y="-2" as="offset"/>
                    </mxGeometry>
                </mxCell>
                <mxCell id="91" value="&lt;font color=&quot;#000000&quot;&gt;Un temps a un programme&lt;/font&gt;" style="rounded=1;whiteSpace=wrap;html=1;gradientColor=#b3b3b3;fillColor=#f5f5f5;strokeColor=#666666;" vertex="1" parent="1">
                    <mxGeometry x="525" y="341" width="90" height="32" as="geometry"/>
                </mxCell>
                <mxCell id="92" value="" style="endArrow=none;html=1;entryX=0;entryY=0.5;entryDx=0;entryDy=0;exitX=1;exitY=0.5;exitDx=0;exitDy=0;" edge="1" parent="1" source="93" target="9">
                    <mxGeometry width="50" height="50" relative="1" as="geometry">
                        <mxPoint x="540" y="340" as="sourcePoint"/>
                        <mxPoint x="590" y="290" as="targetPoint"/>
                    </mxGeometry>
                </mxCell>
                <mxCell id="93" value="" style="rhombus;whiteSpace=wrap;html=1;fillColor=#fad9d5;strokeColor=#ae4132;rotation=0;" vertex="1" parent="1">
                    <mxGeometry x="660" y="185" width="20" height="20" as="geometry"/>
                </mxCell>
                <mxCell id="94" value="" style="endArrow=none;html=1;entryX=0;entryY=0.5;entryDx=0;entryDy=0;exitX=1;exitY=0.5;exitDx=0;exitDy=0;" edge="1" parent="1" source="19" target="93">
                    <mxGeometry width="50" height="50" relative="1" as="geometry">
                        <mxPoint x="660" y="195" as="sourcePoint"/>
                        <mxPoint x="870" y="195" as="targetPoint"/>
                    </mxGeometry>
                </mxCell>
                <mxCell id="95" value="1,1" style="edgeLabel;html=1;align=center;verticalAlign=middle;resizable=0;points=[];fontSize=15;" vertex="1" connectable="0" parent="1">
                    <mxGeometry x="710" y="195" as="geometry">
                        <mxPoint x="-17" y="-2" as="offset"/>
                    </mxGeometry>
                </mxCell>
                <mxCell id="96" value="0,n" style="edgeLabel;html=1;align=center;verticalAlign=middle;resizable=0;points=[];fontSize=15;" vertex="1" connectable="0" parent="1">
                    <mxGeometry x="865" y="195" as="geometry">
                        <mxPoint x="-17" y="-2" as="offset"/>
                    </mxGeometry>
                </mxCell>
                <mxCell id="97" value="&lt;font color=&quot;#000000&quot;&gt;Un programme est rédigé par un admin&lt;/font&gt;" style="rounded=1;whiteSpace=wrap;html=1;gradientColor=#b3b3b3;fillColor=#f5f5f5;strokeColor=#666666;" vertex="1" parent="1">
                    <mxGeometry x="730" y="164.5" width="90" height="61" as="geometry"/>
                </mxCell>
                <mxCell id="99" value="" style="group" vertex="1" connectable="0" parent="1">
                    <mxGeometry x="827" y="410" width="180" height="210" as="geometry"/>
                </mxCell>
                <mxCell id="100" value="&lt;font color=&quot;#000000&quot;&gt;admin&lt;/font&gt;" style="shape=ext;double=1;rounded=0;whiteSpace=wrap;html=1;fillColor=#ffcc99;strokeColor=#36393d;" vertex="1" parent="99">
                    <mxGeometry x="-57" width="180" height="30" as="geometry"/>
                </mxCell>
                <mxCell id="101" value="&lt;font color=&quot;#000000&quot;&gt;admin&lt;/font&gt;" style="shape=ext;double=1;rounded=0;whiteSpace=wrap;html=1;fillColor=#ffcccc;strokeColor=#36393d;" vertex="1" parent="99">
                    <mxGeometry x="-57" y="30" width="180" height="30" as="geometry"/>
                </mxCell>
                <mxCell id="108" value="" style="group" vertex="1" connectable="0" parent="1">
                    <mxGeometry x="1030" y="410" width="180" height="210" as="geometry"/>
                </mxCell>
                <mxCell id="109" value="&lt;font color=&quot;#000000&quot;&gt;subsriber&lt;/font&gt;" style="shape=ext;double=1;rounded=0;whiteSpace=wrap;html=1;fillColor=#ffcc99;strokeColor=#36393d;" vertex="1" parent="108">
                    <mxGeometry x="-57" width="180" height="30" as="geometry"/>
                </mxCell>
                <mxCell id="110" value="&lt;span style=&quot;color: rgb(0 , 0 , 0)&quot;&gt;subsriber&lt;/span&gt;" style="shape=ext;double=1;rounded=0;whiteSpace=wrap;html=1;fillColor=#ffcccc;strokeColor=#36393d;" vertex="1" parent="108">
                    <mxGeometry x="-57" y="30" width="180" height="30" as="geometry"/>
                </mxCell>
                <mxCell id="111" value="" style="endArrow=classic;html=1;entryX=0.25;entryY=1;entryDx=0;entryDy=0;exitX=0.5;exitY=0;exitDx=0;exitDy=0;" edge="1" parent="1" source="100" target="13">
                    <mxGeometry width="50" height="50" relative="1" as="geometry">
                        <mxPoint x="810" y="440" as="sourcePoint"/>
                        <mxPoint x="860" y="390" as="targetPoint"/>
                    </mxGeometry>
                </mxCell>
                <mxCell id="112" value="" style="endArrow=classic;html=1;entryX=0.75;entryY=1;entryDx=0;entryDy=0;exitX=0.5;exitY=0;exitDx=0;exitDy=0;" edge="1" parent="1" source="109" target="13">
                    <mxGeometry width="50" height="50" relative="1" as="geometry">
                        <mxPoint x="870" y="420" as="sourcePoint"/>
                        <mxPoint x="925" y="310" as="targetPoint"/>
                    </mxGeometry>
                </mxCell>
                <mxCell id="113" value="&lt;font color=&quot;#000000&quot;&gt;Un admin est un user&lt;/font&gt;" style="rounded=1;whiteSpace=wrap;html=1;gradientColor=#b3b3b3;fillColor=#f5f5f5;strokeColor=#666666;" vertex="1" parent="1">
                    <mxGeometry x="840" y="341" width="90" height="32" as="geometry"/>
                </mxCell>
                <mxCell id="114" value="&lt;font color=&quot;#000000&quot;&gt;Un subscriber est un user&lt;/font&gt;" style="rounded=1;whiteSpace=wrap;html=1;gradientColor=#b3b3b3;fillColor=#f5f5f5;strokeColor=#666666;" vertex="1" parent="1">
                    <mxGeometry x="990" y="341" width="90" height="32" as="geometry"/>
                </mxCell>
                <mxCell id="115" value="" style="group" vertex="1" connectable="0" parent="1">
                    <mxGeometry x="110" y="700" width="180" height="300" as="geometry"/>
                </mxCell>
                <mxCell id="116" value="user wp" style="shape=ext;double=1;rounded=0;whiteSpace=wrap;html=1;fillColor=#1ba1e2;strokeColor=#006EAF;fontColor=#ffffff;" vertex="1" parent="115">
                    <mxGeometry width="180" height="30" as="geometry"/>
                </mxCell>
                <mxCell id="123" value="" style="group" vertex="1" connectable="0" parent="115">
                    <mxGeometry y="30" width="180" height="270" as="geometry"/>
                </mxCell>
                <mxCell id="124" value="custom table" style="shape=ext;double=1;rounded=0;whiteSpace=wrap;html=1;fillColor=#008a00;strokeColor=#005700;fontColor=#ffffff;" vertex="1" parent="123">
                    <mxGeometry width="180" height="30" as="geometry"/>
                </mxCell>
                <mxCell id="135" value="champs custom" style="shape=ext;double=1;rounded=0;whiteSpace=wrap;html=1;fillColor=#fa6800;strokeColor=#C73500;fontColor=#ffffff;" vertex="1" parent="123">
                    <mxGeometry y="30" width="180" height="30" as="geometry"/>
                </mxCell>
                <mxCell id="130" value="" style="group;fontColor=#ffffff;" vertex="1" connectable="0" parent="123">
                    <mxGeometry y="60" width="180" height="210" as="geometry"/>
                </mxCell>
                <mxCell id="131" value="cpt" style="shape=ext;double=1;rounded=0;whiteSpace=wrap;html=1;fillColor=#a20025;strokeColor=#6F0000;fontColor=#ffffff;" vertex="1" parent="130">
                    <mxGeometry width="180" height="30" as="geometry"/>
                </mxCell>
                <mxCell id="138" value="&lt;font color=&quot;#000000&quot;&gt;rôle&lt;/font&gt;" style="shape=ext;double=1;rounded=0;whiteSpace=wrap;html=1;fillColor=#ffcc99;strokeColor=#36393d;" vertex="1" parent="130">
                    <mxGeometry y="30" width="180" height="30" as="geometry"/>
                </mxCell>
                <mxCell id="139" value="taxonomy" style="shape=ext;double=1;rounded=0;whiteSpace=wrap;html=1;fillColor=#6a00ff;strokeColor=#3700CC;fontColor=#ffffff;" vertex="1" parent="1">
                    <mxGeometry x="290" y="700" width="180" height="30" as="geometry"/>
                </mxCell>
                <mxCell id="77" value="" style="rhombus;whiteSpace=wrap;html=1;fillColor=#fad9d5;strokeColor=#ae4132;rotation=-15;" vertex="1" parent="1">
                    <mxGeometry x="462" y="171" width="20" height="20" as="geometry"/>
                </mxCell>
            </root>
        </mxGraphModel>
    </diagram>
</mxfile>